<svg width="688" height="270" viewBox="0 0 688 270" fill="none" xmlns="http://www.w3.org/2000/svg">
<circle cx="174" cy="135" r="96" fill="#D62A86"/>
<path d="M125.01 135C125.01 107.938 146.946 86 174.006 86C201.065 86 223.002 107.938 223.002 135C223.002 162.062 201.065 184 174.006 184C172.801 184 171.606 183.956 170.423 183.871C168.846 183.757 167.324 184.478 166.371 185.739C164.682 187.974 165.66 191.463 168.449 191.733C170.277 191.909 172.131 192 174.006 192C205.483 192 231.001 166.48 231.001 135C231.001 103.52 205.483 78 174.006 78C142.528 78 117.01 103.52 117.01 135C117.01 135.627 117.021 136.251 117.041 136.873C117.118 139.265 119.424 140.87 121.748 140.3C123.663 139.83 125.01 138.113 125.01 136.141V135Z" fill="white"/>
<path fill-rule="evenodd" clip-rule="evenodd" d="M174.238 114.823C164.91 123.121 155.736 133.6 151.327 139.41C147.099 138.577 142.722 139.019 138.743 140.678C134.743 142.347 131.329 145.171 128.929 148.788C126.529 152.405 125.25 156.655 125.25 161C125.25 166.288 123.515 170.001 121.849 172.377C121.007 173.579 120.174 174.448 119.576 175.001C119.278 175.276 119.041 175.469 118.896 175.583C118.824 175.639 118.774 175.675 118.752 175.691L118.742 175.698C117.301 176.684 116.664 178.492 117.174 180.165C117.687 181.849 119.24 183 121 183H147.123C151.456 183 155.689 181.706 159.286 179.285C162.884 176.864 165.683 173.427 167.335 169.41C168.987 165.393 169.419 160.975 168.577 156.713L168.567 156.662C174.357 152.25 184.928 143.056 193.269 133.699C197.598 128.843 201.533 123.717 203.825 119.044C204.968 116.712 205.832 114.236 205.978 111.801C206.131 109.262 205.494 106.64 203.513 104.529C203.428 104.439 203.34 104.353 203.247 104.271C201.101 102.371 198.476 101.837 195.987 102.041C193.586 102.239 191.139 103.123 188.823 104.279C184.181 106.597 179.079 110.515 174.238 114.823ZM179.555 120.8C171.498 127.968 163.517 136.899 159.026 142.542C160.309 143.38 161.508 144.354 162.6 145.454C163.667 146.528 164.614 147.704 165.432 148.962C171.097 144.448 180.103 136.446 187.298 128.375C191.474 123.691 194.833 119.21 196.641 115.522C197.548 113.674 197.935 112.281 197.992 111.322C198.031 110.679 197.923 110.352 197.801 110.158C197.623 110.059 197.296 109.961 196.642 110.015C195.66 110.095 194.249 110.512 192.397 111.437C188.703 113.281 184.225 116.645 179.555 120.8ZM129.652 175H147.123C149.861 175 152.539 174.183 154.82 172.648C157.101 171.113 158.883 168.928 159.937 166.367C160.99 163.805 161.267 160.985 160.729 158.263C160.192 155.542 158.866 153.047 156.923 151.091C154.981 149.135 152.51 147.806 149.824 147.268C147.139 146.73 144.355 147.006 141.823 148.062C139.291 149.118 137.123 150.908 135.595 153.211C134.067 155.514 133.25 158.225 133.25 161C133.25 166.94 131.611 171.586 129.652 175Z" fill="white"/>
<path d="M335.125 87V169.812H363.5V183.5H320.562V87H335.125Z" fill="black"/>
<path d="M388.188 172.188L360.812 122.625H377.125L395.75 157.625L413.125 122.625H429L380.5 216.625H364.438L388.188 172.188Z" fill="black"/>
<path d="M483.5 77.9375H497.625V183.5H483.5V177.125C477.958 182.542 471.688 185.25 464.688 185.25C456.354 185.25 449.438 182.208 443.938 176.125C438.479 169.917 435.75 162.167 435.75 152.875C435.75 143.792 438.479 136.208 443.938 130.125C449.354 124 456.167 120.938 464.375 120.938C471.5 120.938 477.875 123.854 483.5 129.688V77.9375ZM450.125 152.875C450.125 158.708 451.688 163.458 454.812 167.125C458.021 170.833 462.062 172.688 466.938 172.688C472.146 172.688 476.354 170.896 479.562 167.312C482.771 163.604 484.375 158.896 484.375 153.188C484.375 147.479 482.771 142.771 479.562 139.062C476.354 135.438 472.188 133.625 467.062 133.625C462.229 133.625 458.188 135.458 454.938 139.125C451.729 142.833 450.125 147.417 450.125 152.875Z" fill="black"/>
<path d="M529.438 122.625V183.5H515.375V122.625H529.438ZM513.25 97.3125C513.25 94.8542 514.146 92.7292 515.938 90.9375C517.729 89.1458 519.875 88.25 522.375 88.25C524.917 88.25 527.083 89.1458 528.875 90.9375C530.667 92.6875 531.562 94.8333 531.562 97.375C531.562 99.9167 530.667 102.083 528.875 103.875C527.125 105.667 524.979 106.562 522.438 106.562C519.896 106.562 517.729 105.667 515.938 103.875C514.146 102.083 513.25 99.8958 513.25 97.3125Z" fill="black"/>
<path d="M602.688 156.375H559.062C559.438 161.375 561.062 165.354 563.938 168.312C566.812 171.229 570.5 172.688 575 172.688C578.5 172.688 581.396 171.854 583.688 170.188C585.938 168.521 588.5 165.438 591.375 160.938L603.25 167.562C601.417 170.688 599.479 173.375 597.438 175.625C595.396 177.833 593.208 179.667 590.875 181.125C588.542 182.542 586.021 183.583 583.312 184.25C580.604 184.917 577.667 185.25 574.5 185.25C565.417 185.25 558.125 182.333 552.625 176.5C547.125 170.625 544.375 162.833 544.375 153.125C544.375 143.5 547.042 135.708 552.375 129.75C557.75 123.875 564.875 120.938 573.75 120.938C582.708 120.938 589.792 123.792 595 129.5C600.167 135.167 602.75 143.021 602.75 153.062L602.688 156.375ZM588.25 144.875C586.292 137.375 581.562 133.625 574.062 133.625C572.354 133.625 570.75 133.896 569.25 134.438C567.75 134.938 566.375 135.688 565.125 136.688C563.917 137.646 562.875 138.812 562 140.188C561.125 141.562 560.458 143.125 560 144.875H588.25Z" fill="black"/>
</svg>
