<svg width="128" height="128" viewBox="0 0 128 128" fill="none" xmlns="http://www.w3.org/2000/svg">
<path fill-rule="evenodd" clip-rule="evenodd" d="M64 128C99.3462 128 128 99.3462 128 64C128 28.6538 99.3462 0 64 0C28.6538 0 0 28.6538 0 64C0 99.3462 28.6538 128 64 128ZM64.0038 31.3333C45.964 31.3333 31.3398 45.9587 31.3398 64V64.7609C31.3398 66.0755 30.442 67.2201 29.1651 67.5332C27.6157 67.9131 26.0785 66.843 26.0271 65.2486C26.0137 64.834 26.0069 64.4178 26.0069 64C26.0069 43.0132 43.0187 26 64.0038 26C84.9889 26 102.001 43.0132 102.001 64C102.001 84.9868 84.9889 102 64.0038 102C62.7539 102 61.518 101.94 60.299 101.822C58.4403 101.642 57.7882 99.316 58.914 97.8261C59.5494 96.9851 60.5642 96.5047 61.6154 96.5807C62.4041 96.6377 63.2006 96.6667 64.0038 96.6667C82.0437 96.6667 96.6678 82.0413 96.6678 64C96.6678 45.9587 82.0437 31.3333 64.0038 31.3333ZM48.8844 66.94C51.8237 63.0669 57.9402 56.0807 64.1585 50.5485C67.3863 47.6769 70.7873 45.0645 73.8823 43.5194C75.4262 42.7486 77.0576 42.1592 78.658 42.0277C80.317 41.8913 82.0673 42.2476 83.4983 43.5142C83.5599 43.5687 83.6189 43.626 83.6752 43.686C84.9959 45.093 85.4204 46.8411 85.3187 48.5342C85.2212 50.1572 84.6454 51.8078 83.8831 53.3626C82.3556 56.4781 79.7319 59.8957 76.8463 63.1325C71.2851 69.3706 64.2382 75.4998 60.3782 78.4416L60.385 78.4755C60.9462 81.3169 60.6583 84.2622 59.557 86.9399C58.4556 89.6177 56.5892 91.9095 54.1909 93.5234C51.7923 95.1374 48.9704 96 46.0821 96H28.6669C27.4934 96 26.4578 95.2328 26.1159 94.1102C25.7762 92.995 26.2005 91.7894 27.1614 91.1323L27.168 91.1275C27.1829 91.1168 27.2157 91.0927 27.264 91.055C27.3608 90.9796 27.5185 90.8507 27.7174 90.6672C28.1162 90.299 28.6716 89.7191 29.233 88.9181C30.3433 87.334 31.4998 84.8587 31.4998 81.3333C31.4998 78.4367 32.3526 75.6036 33.9525 73.1922C35.5526 70.7806 37.8288 68.8981 40.4955 67.7857C43.148 66.6792 46.0662 66.385 48.8844 66.94ZM54.0171 69.0282C57.0111 65.2662 62.3319 59.3121 67.7035 54.5332C70.817 51.7633 73.8018 49.5206 76.2645 48.2911C77.4994 47.6746 78.4397 47.3969 79.0948 47.3431C79.5304 47.3073 79.7488 47.3724 79.8672 47.4388C79.949 47.568 80.0207 47.7857 79.995 48.2144C79.9566 48.8537 79.6985 49.7825 79.0943 51.0147C77.8889 53.4733 75.6494 56.4604 72.8653 59.5834C68.0687 64.9638 62.0648 70.2985 58.2879 73.3082C57.7429 72.4696 57.1112 71.6853 56.4 70.9691C55.6723 70.2362 54.873 69.5865 54.0171 69.0282ZM46.0821 90.6667H34.4344C35.7408 88.3905 36.8331 85.293 36.8331 81.3333C36.8331 79.4832 37.378 77.6762 38.3966 76.1408C39.4152 74.6056 40.8609 73.412 42.5488 72.7079C44.2365 72.0039 46.0926 71.82 47.883 72.1786C49.6735 72.5373 51.3208 73.4231 52.6155 74.727C53.9105 76.0311 54.7944 77.6949 55.1527 79.509C55.5111 81.3232 55.327 83.2034 54.6246 84.9112C53.9222 86.6188 52.7341 88.0752 51.2134 89.0986C49.6929 90.1217 47.9072 90.6667 46.0821 90.6667Z" fill="white"/>
</svg>
